<svg width="128" height="100" viewBox="0 0 128 100" fill="none" xmlns="http://www.w3.org/2000/svg">
<g clip-path="url(#clip0_2_51)">
<g clip-path="url(#clip1_2_51)">
<path d="M106.306 67.2637C106.306 67.2637 106.729 64.1919 109.448 64.1919C112.096 64.1919 112.549 67.2637 112.549 67.2637H106.306ZM115.621 67.6726C115.252 64.4203 113.327 61.0461 109.151 61.0461C109.151 61.0461 103.53 61.0446 103.08 68.6645C103.071 68.816 103.08 68.9691 103.087 69.1198C103.103 69.5149 103.143 69.9085 103.202 70.2991C103.285 70.8442 103.407 71.3832 103.575 71.9085C103.768 72.5152 104.022 73.1052 104.35 73.6519C104.706 74.2449 105.15 74.787 105.677 75.2354C106.27 75.7409 106.962 76.1193 107.7 76.3644C108.162 76.5174 108.648 76.6331 109.132 76.6803C109.795 76.7458 110.464 76.6545 111.109 76.4946C112.145 76.2388 113.105 75.7386 113.907 75.0314C114.24 74.7375 114.565 74.4078 114.81 74.0348C114.81 74.0348 115.33 73.2484 115.041 72.4627C114.858 71.9656 114.486 71.5103 113.925 71.4608C113.285 71.4037 112.92 71.8963 112.522 72.3059C112.522 72.3059 111.536 73.5361 109.602 73.5361C108.399 73.5361 107.502 72.9773 106.923 72.0592C106.541 71.454 106.31 70.6637 106.267 69.9512H111.518C112.162 69.9512 112.805 69.9481 113.448 69.9512C113.664 69.9519 113.88 69.9481 114.096 69.9603C114.31 69.9717 114.532 69.9732 114.74 69.9154C114.999 69.8423 115.28 69.6306 115.423 69.4068C115.753 68.8937 115.688 68.2572 115.621 67.6726Z" fill="#F3801F"/>
<path d="M115.592 64.1728C115.639 64.3121 115.689 64.4514 115.74 64.59C115.74 64.759 115.895 65.0125 115.953 65.1731L116.177 65.786C116.327 66.1956 116.476 66.6044 116.626 67.0132C116.918 67.8111 117.213 68.6082 117.511 69.4037C117.848 70.299 118.188 71.1936 118.532 72.0858C118.708 72.5411 118.884 72.9948 119.062 73.4493C119.149 73.6716 119.236 73.8939 119.324 74.117C119.368 74.2281 119.412 74.34 119.456 74.4512C119.478 74.5068 119.609 74.7352 119.588 74.7862C119.328 75.4439 119.045 76.0979 118.677 76.7031C118.218 77.4576 117.583 78.1207 116.903 78.6803C116.756 78.8013 116.259 79.1842 116.097 79.2855C115.752 79.5002 115.393 79.6464 115.12 79.9593C114.85 80.2676 114.702 80.6536 114.702 81.0639C114.702 81.3996 114.78 81.7361 114.963 82.0201C115.114 82.2554 115.319 82.4525 115.566 82.5858C115.822 82.7236 116.152 82.6809 116.42 82.5941C116.677 82.5119 116.913 82.3756 117.142 82.2348C118.146 81.6136 119.08 80.8644 119.87 79.9844C119.948 79.8976 120.023 79.8085 120.096 79.7179C120.181 79.6129 120.265 79.5063 120.342 79.3951C120.342 79.3951 121.61 77.7431 122.361 75.8071C123.112 73.8718 124.03 71.3519 124.03 71.3519C124.668 69.6588 125.3 67.9633 125.945 66.2732C126.175 65.671 126.406 65.0688 126.636 64.4659C126.879 63.8294 127.125 63.1344 126.928 62.4827C126.661 61.6019 125.447 61.0004 124.734 61.761C124.467 62.0457 124.324 62.421 124.187 62.7857C123.565 64.4377 122.945 66.0905 122.329 67.7441C122.064 68.4529 121.8 69.1616 121.536 69.8704C121.482 70.0143 121.14 70.6279 121.197 70.7786C120.874 69.9275 120.55 69.0756 120.226 68.2245C119.628 66.6524 119.026 65.081 118.436 63.5059C118.293 63.1229 118.148 62.7408 117.994 62.3616C117.86 62.0282 117.619 61.729 117.302 61.5531C116.829 61.2905 116.188 61.4131 115.809 61.7891C115.458 62.1378 115.334 62.6646 115.366 63.1587C115.388 63.5051 115.481 63.8416 115.592 64.1728Z" fill="#F3801F"/>
<path d="M56.4024 62.7933C56.381 62.9905 56.3826 63.1915 56.3841 63.3887C56.3894 63.9597 56.3894 64.5299 56.3894 65.1009V72.567C56.3894 72.9819 56.3902 73.3968 56.3909 73.8117C56.3909 74.1931 56.3666 74.5837 56.413 74.9628C56.4625 75.3724 56.6011 75.7744 56.879 76.0865C57.1165 76.3537 57.4424 76.5106 57.7979 76.5418C57.8482 76.5456 57.8969 76.5479 57.9471 76.5479C58.4131 76.5479 58.8181 76.324 59.0838 75.9449C59.3092 75.6236 59.4272 75.2445 59.4782 74.8593C59.533 74.452 59.5178 74.0416 59.514 73.6321C59.5109 73.2918 59.5117 72.9507 59.5125 72.6104C59.5132 72.2747 59.5125 71.9389 59.5125 71.6039V67.5835C59.5125 67.1693 59.501 66.7651 59.5947 66.3585C59.718 65.8195 59.9632 65.2722 60.3804 64.8968C60.7687 64.5481 61.2727 64.3814 61.7889 64.3593C61.8338 64.3571 61.878 64.3563 61.9229 64.3563C62.4414 64.3563 62.953 64.5055 63.3481 64.8504C63.6915 65.1503 63.9108 65.5569 64.0607 65.9825C64.2716 66.5824 64.2701 67.2295 64.2686 67.8576C64.2686 69.1076 64.2655 70.3577 64.2655 71.6077V74.8532C64.2655 74.8532 64.4018 76.5479 65.8004 76.5479C67.1998 76.5479 67.3223 74.9895 67.3223 74.9895V67.5081C67.3223 67.5081 67.3558 64.3533 69.9589 64.3533C72.3739 64.3456 72.1569 67.4404 72.1569 67.4404V75.0298C72.1569 75.0298 72.3556 76.5479 73.6872 76.5479C75.0188 76.5479 75.203 75.0595 75.203 75.0595V66.7506C75.203 66.7506 75.0287 61.0477 70.6639 61.0477C67.4914 61.0477 66.411 63.5828 66.3806 63.5767C66.3699 63.5744 66.3554 63.5341 66.3509 63.5265C66.3273 63.4808 66.3029 63.4344 66.2778 63.3894C66.239 63.3194 66.1994 63.2501 66.1575 63.1824C66.1034 63.0948 66.0471 63.008 65.9885 62.9235C65.9184 62.823 65.8453 62.7256 65.7677 62.6297C65.6816 62.5223 65.5903 62.4188 65.4951 62.3183C65.3908 62.2094 65.2804 62.1051 65.1662 62.0069C65.0436 61.9018 64.9142 61.8036 64.7802 61.713C64.6371 61.6171 64.4886 61.5296 64.3341 61.4534C63.8734 61.2243 63.3656 61.0911 62.8525 61.0621C62.7208 61.0545 62.5868 61.0469 62.4551 61.0477C62.1277 61.0507 61.8094 61.1131 61.5041 61.2304C61.3275 61.2981 61.1577 61.3834 60.9956 61.4801C60.8349 61.5752 60.6826 61.6826 60.538 61.7998C60.369 61.9361 60.2099 62.0853 60.0614 62.2437C59.8878 62.4287 59.7272 62.6266 59.5787 62.8322C59.5597 62.8596 59.5406 62.8862 59.5216 62.9136C59.5216 62.9136 59.3389 61.1558 57.9806 61.1558C57.4325 61.1558 56.9817 61.4572 56.7061 61.9201C56.6056 62.0907 56.5166 62.2817 56.4625 62.4728C56.4328 62.5779 56.4138 62.6852 56.4024 62.7933Z" fill="#F3801F"/>
<path d="M82.6878 73.4097C80.7829 73.4097 79.2389 71.3732 79.2389 68.8609C79.2389 66.3493 80.7829 64.3128 82.6878 64.3128C84.5927 64.3128 86.1367 66.3493 86.1367 68.8609C86.1367 71.3732 84.5927 73.4097 82.6878 73.4097ZM82.6878 61.0255C79.1201 61.0255 76.2285 64.529 76.2285 68.8502C76.2285 73.1714 79.1201 76.6749 82.6878 76.6749C86.2547 76.6749 89.147 73.1714 89.147 68.8502C89.147 64.529 86.2547 61.0255 82.6878 61.0255Z" fill="#F3801F"/>
<path d="M93.2264 62.9494C93.2264 62.6319 93.151 62.3168 92.9957 62.0396C92.7719 61.64 92.3539 61.1817 91.6154 61.1817C91.1662 61.1824 90.7825 61.4131 90.5274 61.7755C90.4246 61.9216 90.3424 62.0823 90.2777 62.249C90.181 62.4949 90.146 62.7324 90.1467 62.9974V63.0263C90.1467 63.6011 90.149 64.1759 90.149 64.7514V74.3203C90.149 74.6537 90.1186 74.9826 90.2122 75.31C90.4109 76.0043 90.9781 76.5562 91.7235 76.5562C93.0345 76.5562 93.1974 75.0892 93.1974 75.0892V68.022C93.1974 67.6406 93.2485 67.2615 93.3505 66.8953C93.6238 65.917 94.29 64.3182 96.1819 64.3182C96.8055 64.3182 97.4085 64.52 97.8714 64.9456C98.2543 65.298 98.5185 65.7632 98.6967 66.2482C99.0347 67.1678 99.0012 68.1301 98.9928 69.0924C98.9905 69.3771 98.9875 69.6611 98.9875 69.9458V73.9206C98.9875 74.4086 98.9113 74.9088 99.0781 75.38C99.3065 76.0279 99.8752 76.5562 100.588 76.5562C101.102 76.5562 101.527 76.2822 101.779 75.8406C102.038 75.3831 102.059 74.9126 102.06 74.3949C102.062 73.3314 102.055 72.2678 102.055 71.2043V68.1689C102.055 66.9843 101.929 65.8271 101.533 64.7004C101.255 63.9079 100.867 63.1405 100.315 62.5033C99.707 61.8029 98.9022 61.3065 97.9871 61.1284C97.697 61.072 97.4008 61.0461 97.1054 61.0461C94.7019 61.0461 93.4746 62.6799 93.2728 62.9639C93.2637 62.9761 93.2264 62.9654 93.2264 62.9494Z" fill="#F3801F"/>
<path d="M67.5539 96.4797C67.5341 96.3426 67.5493 96.1866 67.5493 96.0518V80.968C67.5493 80.7077 67.6589 80.445 67.8401 80.2577C68.0251 80.0659 68.2817 79.9776 68.5444 79.9684C68.5611 79.9677 68.5779 79.9669 68.5954 79.9669C68.8634 79.9669 69.126 80.0514 69.3209 80.2418C69.5478 80.4641 69.6597 80.7663 69.659 81.0807C69.6582 81.3692 69.6582 81.6578 69.6582 81.9463V95.8196C69.6582 96.0526 69.6856 96.3053 69.6301 96.5307C69.5113 97.0179 69.1032 97.3369 68.6038 97.3369C68.1325 97.3369 67.7031 97.0263 67.5721 96.5672C67.5638 96.539 67.5577 96.5101 67.5539 96.4797Z" fill="#808083"/>
<path d="M72.1676 96.4797C72.1478 96.3426 72.1631 96.1866 72.1631 96.0518V80.968C72.1631 80.7077 72.2727 80.445 72.4539 80.2577C72.6389 80.0659 72.8947 79.9776 73.1581 79.9684C73.1749 79.9677 73.1916 79.9669 73.2092 79.9669C73.4771 79.9669 73.7406 80.0514 73.934 80.2418C74.1616 80.4641 74.2735 80.7663 74.2728 81.0807C74.272 81.3692 74.272 81.6578 74.272 81.9463V95.8196C74.272 96.0526 74.2994 96.3053 74.2446 96.5307C74.1251 97.0179 73.717 97.3369 73.2175 97.3369C72.7463 97.3369 72.3169 97.0263 72.1859 96.5672C72.1775 96.539 72.1714 96.5101 72.1676 96.4797Z" fill="#808083"/>
<path d="M50.604 93.6346C50.5789 93.5295 50.5537 93.4252 50.5294 93.3209C50.4791 93.1115 50.4296 92.9029 50.3802 92.6936C50.2812 92.2756 50.1837 91.8577 50.0863 91.4389C49.8647 90.4835 49.6363 89.509 49.4125 88.546C49.1879 87.5844 48.9922 86.6107 48.7303 85.6591C48.7143 85.6012 48.6983 85.5441 48.6808 85.487C48.6077 85.2434 48.5065 85.0067 48.3116 84.8346C48.023 84.578 47.5464 84.54 47.1642 84.594C46.8886 84.6329 46.6062 84.7227 46.4158 84.9252C46.2179 85.1361 46.1478 85.4322 46.0854 85.7139C45.4794 88.4531 44.8726 91.1915 44.2658 93.9307C43.6125 91.305 42.9585 88.6784 42.3053 86.0527C42.1728 85.5228 41.9962 84.9328 41.5143 84.677C41.0818 84.4463 40.4948 84.6268 40.2284 85.0272C39.8515 85.5929 40.0281 86.2971 40.201 86.9016C41.0864 89.9963 41.9711 93.091 42.8558 96.1857C42.9547 96.5306 43.0682 96.8998 43.3514 97.1213C43.5829 97.3018 43.8904 97.3513 44.1836 97.365C44.533 97.3809 44.9137 97.3406 45.1703 97.1031C45.3994 96.8899 45.4801 96.5656 45.5494 96.2603L47.3325 88.4295C47.3378 88.4067 47.3683 88.4082 47.3744 88.431C47.9591 90.7294 48.4943 93.0392 49.0402 95.3467C49.1156 95.668 49.1909 95.9885 49.2655 96.309C49.3249 96.5618 49.3904 96.8267 49.5617 97.0224C49.7924 97.2843 50.1655 97.3665 50.5141 97.3749C50.7905 97.3809 51.0768 97.3467 51.3128 97.2036C51.6782 96.9843 51.8564 96.5534 51.9531 96.1377C52.2333 94.9273 52.5995 93.7358 52.9375 92.5375C53.4705 90.6426 54.0757 88.766 54.5637 86.8597C54.6094 86.6823 54.6536 86.5041 54.6962 86.326C54.7427 86.1288 54.7876 85.9256 54.7982 85.7246C54.8127 85.4398 54.7579 85.1597 54.5432 84.9107C54.3407 84.677 54.0354 84.5537 53.7263 84.5742C52.8842 84.6306 52.6916 85.5913 52.5447 86.2476C51.9676 88.817 51.312 91.4176 50.6771 93.9353" fill="#808083"/>
<path d="M62.95 93.0385C62.8761 93.6164 62.5853 94.1462 62.1643 94.5444C61.9633 94.7347 61.7334 94.8946 61.4836 95.0141C60.7512 95.3628 59.846 95.4412 59.0603 95.244C58.3088 95.056 57.9251 94.4507 57.9563 93.6894C57.9822 93.0553 58.3096 92.5216 58.8418 92.1919C59.3412 91.8821 59.9176 91.7413 60.4901 91.6392C61.237 91.5068 62.0151 91.4162 62.7246 91.136C62.7833 91.1124 62.8647 91.0789 62.9599 91.0332C62.9599 91.3789 62.9599 91.7253 62.9607 92.0717C62.9622 92.3914 62.9903 92.7203 62.95 93.0385ZM65.7715 95.3872C65.5812 95.3019 65.3368 95.327 65.1975 95.1709C65.0696 95.0278 65.065 94.7842 65.0658 94.5916C65.0787 92.7507 65.0909 90.9107 65.1038 89.0698C65.1084 88.3626 65.1122 87.6469 64.9516 86.9587C64.7894 86.2697 64.4445 85.599 63.8727 85.1826C63.4205 84.8529 62.8624 84.7045 62.312 84.6048C61.186 84.4007 60.0021 84.3771 58.9171 84.7433C58.104 85.0182 57.3526 85.5313 56.8569 86.2378C56.5311 86.7029 56.2296 87.3668 56.2935 87.9659C56.3171 88.1898 56.3918 88.4052 56.5364 88.5978C56.8752 89.05 57.6114 89.1886 58.0256 88.8049C58.4002 88.4577 58.4017 87.87 58.6484 87.4239C58.9933 86.8011 59.7638 86.5461 60.4741 86.508C61.1745 86.47 61.9214 86.61 62.4422 87.079C62.9645 87.548 63.1685 88.4052 62.7574 88.9739C62.4833 89.3538 62.0113 89.5327 61.5575 89.6515C60.6332 89.8951 59.6716 89.9773 58.7466 90.2217C57.8223 90.4661 56.9003 90.9061 56.3484 91.6864C55.8177 92.4348 55.6951 93.4078 55.7872 94.3206C55.8565 95.0103 56.0491 95.7077 56.4778 96.252C57.0191 96.9395 57.884 97.311 58.7512 97.4236C60.3462 97.6315 62.0265 97.0004 63.0893 95.7937C63.1068 96.2832 63.3398 96.7613 63.7144 97.0765C64.0897 97.3909 64.5991 97.5333 65.084 97.4663C65.5675 97.3993 66.0761 97.1176 66.2146 96.6486C66.3471 96.1987 66.2169 95.5866 65.7715 95.3872Z" fill="#808083"/>
<path d="M88.3925 84.7456C88.3918 84.671 88.3918 84.5956 88.3918 84.5218C88.3918 84.3352 88.391 84.1495 88.391 83.9645C88.3903 83.7254 88.3895 83.4856 88.3887 83.2466C88.3887 83.0113 88.388 82.7761 88.388 82.5408C88.3872 82.3673 88.3872 82.1937 88.3864 82.0201C88.3864 81.8991 88.3895 81.7871 88.4268 81.6722C88.4519 81.593 88.4854 81.5161 88.5281 81.4446C88.6461 81.2459 88.8303 81.0989 89.0496 81.0266C89.1805 80.9832 89.3199 80.9657 89.4577 80.9657C89.7158 80.9657 89.9708 81.0441 90.1558 81.2299C90.4672 81.5435 90.4832 81.9973 90.4741 82.4114C90.4672 82.7091 90.471 83.0075 90.471 83.3052V84.7517H91.5696C91.7105 84.7517 91.8475 84.7403 91.9815 84.792C92.3744 84.942 92.6211 85.2899 92.6477 85.7071C92.65 85.7376 92.6507 85.7688 92.6507 85.7992C92.6507 86.1631 92.4985 86.5034 92.1886 86.7029C92.1376 86.7364 92.0843 86.7615 92.0303 86.7874C91.9153 86.8407 91.8049 86.8506 91.6793 86.8506C91.2796 86.8491 90.8799 86.8491 90.4802 86.8491V94.3913C90.4802 94.3913 90.5083 95.2851 91.4859 95.2851C92.4627 95.2851 92.9728 95.2158 92.9728 96.2878C92.9728 96.5862 92.8913 96.8572 92.6584 97.0552C92.4071 97.2691 92.0683 97.3452 91.7508 97.3368C91.3686 97.3262 91.0009 97.3505 90.621 97.2881C90.2761 97.2318 89.9457 97.1008 89.6419 96.9295C89.1242 96.638 88.7032 96.1926 88.5128 95.6239C88.4245 95.3613 88.3864 95.0841 88.3864 94.8078V86.8864C88.1969 86.8864 88.0058 86.8917 87.8162 86.8917C87.6312 86.8925 87.4431 86.9092 87.2619 86.862C86.9726 86.7867 86.6947 86.5438 86.5722 86.2735C86.5067 86.1304 86.4785 85.9736 86.4785 85.8175C86.4785 85.4414 86.6468 85.0988 86.9643 84.894C87.1203 84.7928 87.2772 84.7578 87.4629 84.7509C87.7698 84.7403 88.085 84.7456 88.3925 84.7456Z" fill="#808083"/>
<path d="M78.2385 89.6248C78.2385 89.6248 78.5393 86.5644 81.2322 86.5644C84.1055 86.5644 84.0613 89.6248 84.0613 89.6248H78.2385ZM86.2471 89.9613C85.9472 87.2617 84.86 84.4624 80.9908 84.4624C77.7924 84.4624 75.4375 88.4151 76.2111 92.5262C76.5849 94.5124 77.4681 96.4294 79.7346 97.2288C80.1069 97.3597 80.5827 97.3962 80.9756 97.4358C82.1663 97.5554 83.4659 97.1648 84.4009 96.4218C85.1097 95.8584 86.1482 94.4903 85.785 93.4831C85.6365 93.0705 85.3411 92.8642 84.8859 92.8231C84.3659 92.7759 84.0438 93.3392 83.9205 93.5874C83.622 94.1904 83.3944 95.34 81.2322 95.34C79.9264 95.34 79.1895 94.4903 78.719 93.729C78.4083 93.2266 78.2682 92.2749 78.234 91.6842H82.9193C83.4423 91.6842 83.9646 91.6811 84.4877 91.6834C84.662 91.6842 84.8387 91.6811 85.013 91.6918C85.1866 91.7009 85.3678 91.7024 85.536 91.6545C85.7469 91.5943 85.9753 91.4177 86.0918 91.2327C86.3598 90.8064 86.3012 90.4463 86.2471 89.9613Z" fill="#808083"/>
<path d="M7.56357 57.7732L3.10588 57.7907L3.11426 61.4648L1.00837 61.4823L1 65.4822H3.12339C3.12339 65.4822 3.11426 70.9004 3.12339 71.1562C3.13253 71.412 3.1942 73.0153 4.88515 74.592C6.84105 76.5211 9.1761 76.4861 9.1761 76.4861L12.5245 76.4777V72.6712H9.75777C7.89018 72.6712 7.56357 70.4162 7.56357 70.4162L7.5727 65.4997C7.5727 65.4997 8.97358 65.4913 10.5945 65.4822C12.2162 65.4738 12.5245 63.6939 12.5245 63.6939V61.4731L7.56357 61.4823" fill="#EC1C23"/>
<path d="M19.3926 61.4823C18.7051 61.4823 17.4763 61.5219 15.7313 62.9889C13.9871 64.456 13.6871 66.5305 13.6962 67.0376C13.7046 67.5438 13.7008 76.4861 13.7008 76.4861L18.0268 76.4907C18.0268 76.4907 18.0313 68.9226 18.0313 67.658C18.0313 66.3943 19.9347 65.4913 20.454 65.4913C20.974 65.4913 22.9961 65.4951 22.9961 65.4951L22.974 61.4823" fill="#EC1C23"/>
<path d="M37.6839 61.4823L33.1501 61.4952C33.1501 61.4952 33.1638 69.8346 33.1638 70.5746C33.1638 71.3146 32.4634 72.7946 30.758 72.7946C29.0533 72.7946 28.4983 70.9575 28.4983 70.5609C28.4983 70.165 28.5112 64.9051 28.5112 63.3985C28.5112 61.8919 27.0182 61.4694 26.6612 61.4694C26.3041 61.4694 24.0711 61.4952 24.0711 61.4952C24.0711 61.4952 24.0574 70.0059 24.0574 70.7725C24.0574 71.5392 24.1632 73.0191 25.6037 74.6445C27.0449 76.2707 28.7891 76.7069 30.8638 76.6803C32.9392 76.6536 34.1947 76.2966 35.8727 74.962C37.5515 73.6274 37.7098 70.9971 37.6969 70.2175C37.6839 69.438 37.6839 61.4823 37.6839 61.4823Z" fill="#EC1C23"/>
<path d="M42.7538 67.4175C42.9898 66.5154 43.8333 64.721 45.9704 64.8656C48.5072 65.0369 48.7722 67.4297 48.7722 67.4297L42.7538 67.4175ZM52.7502 66.4514C52.2082 64.7202 51.6387 63.9292 50.6885 62.9623C49.1689 61.4161 46.8955 61.0591 45.825 61.0591C44.7546 61.0591 42.9174 61.324 41.027 62.8832C39.1374 64.4423 38.4765 67.0856 38.424 69.1739C38.3707 71.2621 39.4678 73.6009 40.9478 74.975C42.4287 76.3499 44.2787 76.7062 45.9438 76.6933C47.6089 76.6803 48.6001 76.337 50.0147 75.4912C51.4285 74.6446 52.4198 72.8083 52.4198 72.8083C52.4198 72.8083 49.0097 71.9488 48.2964 71.7509C47.9659 72.2396 47.0409 73.0329 45.64 72.9933C44.2391 72.9537 43.4192 71.9092 43.0629 71.3809C42.9548 71.221 42.8733 70.8799 42.8131 70.4681C44.782 70.4658 52.3825 70.4559 53.0144 70.4559C53.0342 68.5724 53.0807 67.7593 52.7502 66.4514Z" fill="#EC1C23"/>
<path d="M99.2244 6.33252H79.9783C78.7221 6.33252 77.6029 7.12732 77.1895 8.3142C76.2721 10.946 75.2389 13.9129 74.1731 16.9725C74.1731 16.9725 74.1731 16.9725 74.1731 16.9733C74.1403 17.0677 74.1068 17.1629 74.0741 17.2573C74.0512 17.3227 74.0284 17.3882 74.0056 17.4537C70.6785 27.002 67.075 37.3406 65.7054 41.256C65.5462 41.744 65.3643 42.2997 65.1435 42.8714C65.1047 42.9727 64.9151 43.4561 64.5664 43.932C64.507 44.0142 64.4476 44.088 64.389 44.1565C64.2877 44.2768 64.1598 44.4192 63.9718 44.5654C63.9611 44.5737 63.9505 44.5806 63.9398 44.589C63.8751 44.6392 63.8028 44.691 63.719 44.742C63.5135 44.8676 63.3399 44.9323 63.2721 44.9559C63.2622 44.959 63.2531 44.962 63.2432 44.9658C63.2424 44.9658 63.2401 44.9666 63.2386 44.9673C63.2325 44.9689 63.2264 44.9711 63.2203 44.9727C63.2165 44.9742 63.212 44.9757 63.2074 44.9772C62.9607 45.0594 62.7338 45.0937 62.5488 45.1044H85.6823C85.8316 45.1044 85.9808 45.0876 86.1254 45.0503C86.6881 44.9057 87.891 44.3842 88.3973 42.5266L100.414 8.00739C100.699 7.18823 100.091 6.33252 99.2244 6.33252Z" fill="#FF7A00"/>
<path d="M42.2688 38.5518C42.2742 38.5373 42.2787 38.5236 42.2841 38.5091L42.3282 38.3835C42.3518 38.3157 42.3754 38.248 42.3998 38.1802C42.4318 38.0874 42.4645 37.9945 42.4972 37.9024C42.5376 37.7859 42.5787 37.6702 42.619 37.5537C42.6678 37.4159 42.7157 37.2781 42.7645 37.1395C42.82 36.9812 42.8756 36.8228 42.9312 36.6637C42.9944 36.4863 43.0561 36.3082 43.1185 36.1308L43.3248 35.5438C43.3987 35.3322 43.4733 35.1198 43.5479 34.9081C43.6278 34.6813 43.707 34.4536 43.7869 34.2268C43.8715 33.9862 43.956 33.7456 44.0405 33.505C44.1288 33.2523 44.2179 32.9995 44.3062 32.746C44.3991 32.4826 44.492 32.2192 44.5841 31.955C44.68 31.6817 44.7759 31.4092 44.8719 31.1359C44.9708 30.8542 45.0691 30.5733 45.168 30.2923C45.2693 30.0038 45.3698 29.716 45.471 29.4282C45.5738 29.1351 45.6766 28.842 45.7802 28.5482C45.8845 28.2513 45.988 27.9544 46.0931 27.6574C46.1981 27.3575 46.3032 27.0575 46.4083 26.7583C46.5141 26.4576 46.6192 26.1569 46.725 25.8562L47.0409 24.9548L47.3561 24.058C47.4597 23.7626 47.5632 23.4672 47.6675 23.1711C47.7696 22.8795 47.8716 22.5887 47.9744 22.2971C48.0741 22.0116 48.1738 21.7261 48.2743 21.4406C48.3718 21.1627 48.47 20.8841 48.5674 20.6062C48.6618 20.3367 48.757 20.0672 48.8514 19.797C48.942 19.5373 49.0334 19.2777 49.1247 19.0181C49.2115 18.7699 49.2991 18.5218 49.3859 18.2743C49.4689 18.0383 49.5511 17.8031 49.6341 17.5678L49.8671 16.904C49.9394 16.6984 50.011 16.4921 50.0833 16.2866L50.282 15.7209C50.3414 15.5504 50.4015 15.3798 50.4617 15.2093C50.5142 15.0593 50.5675 14.9086 50.62 14.7579C50.6657 14.6284 50.7106 14.499 50.7563 14.3696C50.7936 14.2623 50.8317 14.1557 50.869 14.0483C50.9299 13.874 50.9847 13.6958 51.0662 13.5291L51.073 13.5207L51.0768 13.5185L51.0791 13.5146L51.0829 13.5108C51.0989 13.4796 51.105 13.4522 51.1233 13.4218C51.2824 13.0708 51.7027 12.6924 51.874 12.6391L49.2686 3.88107C48.9428 2.76651 47.8731 1.99988 46.7592 1.99988H28.3765C27.5109 1.99988 26.8904 2.83275 27.1363 3.66181L37.4853 38.4406C37.9132 39.6747 38.8405 40.3157 39.7891 40.3629C39.7899 40.3629 39.7899 40.3629 39.7906 40.3629C40.7773 40.4055 41.7831 39.8041 42.2688 38.5518Z" fill="#FF000F"/>
<path d="M51.8718 12.6408C51.8725 12.6408 51.8733 12.6392 51.8741 12.6384L51.8655 12.6439C51.867 12.6432 51.8694 12.6424 51.8718 12.6408Z" fill="#AA0016"/>
<path d="M59.0527 40.2167C59.0101 40.0721 58.9667 39.9282 58.9241 39.7836C58.902 39.7097 58.8807 39.6359 58.8578 39.5613L54.423 24.6625L51.3213 14.2425C51.2055 13.8534 51.2444 13.4652 51.4088 13.1462C51.4477 13.0701 51.4949 12.9977 51.5489 12.9307C51.555 12.9224 51.5603 12.9132 51.5672 12.9056C51.6426 12.815 51.7309 12.7343 51.8314 12.6658C51.842 12.6582 51.8542 12.6513 51.8656 12.6437L51.874 12.6392C51.7027 12.6925 51.2824 13.0708 51.1233 13.4218C51.1058 13.4522 51.0891 13.4834 51.0731 13.5147C51.0708 13.5192 51.0685 13.5246 51.0662 13.5291C50.9848 13.6959 50.9299 13.874 50.869 14.0483C50.8317 14.1557 50.7937 14.2623 50.7564 14.3696C50.7107 14.499 50.6658 14.6285 50.6201 14.7579C50.5675 14.9086 50.5142 15.0594 50.4617 15.2093C50.4016 15.3799 50.3422 15.5504 50.282 15.7209L50.0833 16.2866C50.011 16.4921 49.9394 16.6984 49.8671 16.904L49.6341 17.5679C49.5511 17.8031 49.4689 18.0383 49.3859 18.2744C49.2991 18.5218 49.2116 18.77 49.1248 19.0182C49.0334 19.2778 48.9421 19.5374 48.8515 19.797C48.7571 20.0672 48.6619 20.3367 48.5675 20.6062C48.47 20.8841 48.3726 21.1628 48.2744 21.4406C48.1746 21.7261 48.0741 22.0116 47.9744 22.2971C47.8716 22.5887 47.7696 22.8795 47.6676 23.1711C47.5633 23.4672 47.4597 23.7626 47.3562 24.058L47.041 24.9548L46.725 25.8562C46.6192 26.1569 46.5141 26.4576 46.4083 26.7584C46.3032 27.0576 46.1982 27.3575 46.0931 27.6575C45.9888 27.9544 45.8845 28.2513 45.7802 28.5482C45.6774 28.8421 45.5739 29.1352 45.4711 29.4283C45.3698 29.716 45.2693 30.0038 45.1681 30.2923C45.0691 30.5733 44.9709 30.8542 44.8719 31.1359C44.776 31.4092 44.6801 31.6817 44.5841 31.955C44.492 32.2192 44.3991 32.4826 44.3062 32.746C44.2179 32.9996 44.1288 33.2523 44.0405 33.5051C43.956 33.7456 43.8715 33.9862 43.787 34.2268C43.7071 34.4537 43.6279 34.6813 43.5479 34.9082C43.4733 35.1198 43.3995 35.3322 43.3249 35.5438L43.1193 36.1308C43.0561 36.3082 42.9944 36.4863 42.932 36.6637C42.8757 36.8228 42.8201 36.9812 42.7645 37.1395C42.7165 37.2781 42.6678 37.4159 42.6191 37.5537C42.5787 37.6702 42.5376 37.7859 42.4973 37.9024C42.4645 37.9945 42.4318 38.0874 42.3998 38.1802C42.3755 38.248 42.3519 38.3158 42.3283 38.3835L42.2841 38.5091C42.2788 38.5236 42.2742 38.5373 42.2689 38.5518C41.7831 39.8041 40.7774 40.4055 39.7907 40.3629C39.7899 40.3629 39.7899 40.3629 39.7892 40.3629C39.7709 40.3652 39.7526 40.366 39.7351 40.3667H59.0969C59.0824 40.3165 59.068 40.2662 59.0527 40.2167Z" fill="#AA0016"/>
<path d="M74.173 16.9725C74.0071 16.3749 73.8434 15.7765 73.685 15.1766C73.5541 14.6833 73.401 14.2067 73.1346 13.7674C72.8742 13.3373 72.5202 12.965 72.0786 12.7191C71.9552 12.6506 71.8266 12.5919 71.6941 12.5447C71.4847 12.4709 71.1299 12.4176 70.9084 12.4176H52.6825C52.3643 12.4176 52.0917 12.5013 51.8717 12.6407C51.8694 12.6422 51.8671 12.6429 51.8656 12.6445C51.8542 12.6513 51.842 12.6582 51.8313 12.6658C51.7308 12.7343 51.6433 12.815 51.5671 12.9056C51.5603 12.9132 51.5557 12.9223 51.5489 12.9307C51.4948 12.9977 51.4476 13.07 51.4088 13.1462C51.2443 13.4652 51.2055 13.8542 51.3212 14.2425L54.423 24.6625L58.8586 39.5612L59.0801 40.3066L59.9229 43.2422C59.9777 43.3982 60.4239 44.6102 61.6527 44.9932C62.2564 45.1812 62.7871 45.0883 63.0581 45.0191C63.0985 45.0092 63.1495 44.9955 63.2074 44.9772C63.2119 44.9757 63.2165 44.9741 63.2203 44.9726C63.2279 44.9703 63.2355 44.968 63.2432 44.9658C63.253 44.962 63.2622 44.9589 63.2721 44.9559C63.3398 44.9323 63.5142 44.8676 63.719 44.7419C63.8027 44.6917 63.8751 44.6392 63.9405 44.5889C64.073 44.4854 64.1712 44.3879 64.2443 44.3133C64.293 44.2638 64.341 44.2121 64.389 44.1565C64.4476 44.088 64.507 44.0141 64.5664 43.9327C64.9151 43.4561 65.1046 42.9727 65.1435 42.8714C65.3643 42.2997 65.5462 41.7439 65.7053 41.2559C65.7929 40.9887 65.8728 40.7413 65.949 40.5243L66.5223 38.8822C66.7621 38.1947 67.0027 37.5065 67.2425 36.8183C67.5196 36.0257 67.7968 35.2332 68.0731 34.4407C68.3739 33.5804 68.6738 32.7201 68.9746 31.8591C69.286 30.9676 69.5973 30.0754 69.9095 29.1831L70.8391 26.5216L71.7245 23.9841C71.9933 23.2152 72.2613 22.4471 72.5293 21.6789C72.7585 21.0249 72.9869 20.371 73.2153 19.717C73.3904 19.2138 73.5662 18.7106 73.7421 18.2066C73.8304 17.9553 73.9172 17.7049 74.0055 17.4536C74.0284 17.3882 74.0512 17.3227 74.0741 17.2572C74.1068 17.1628 74.1403 17.0677 74.173 16.9733C74.173 16.9725 74.173 16.9725 74.173 16.9725Z" fill="#FFCD00"/>
</g>
</g>
<defs>
<clipPath id="clip0_2_51">
<rect width="128" height="100" fill="white"/>
</clipPath>
<clipPath id="clip1_2_51">
<rect width="126" height="143" fill="white" transform="translate(1 -11)"/>
</clipPath>
</defs>
</svg>
